HIERARCHY
ROOT Hips
{
	OFFSET 0.00000 0.00000 0.00000
	CHANNELS 6 Xposition Yposition Zposition Zrotation Yrotation Xrotation 
	JOINT LHipJoint
	{
		OFFSET 0 0 0
		CHANNELS 3 Zrotation Yrotation Xrotation
		JOINT LeftUpLeg
		{
			OFFSET 1.40001 -1.72600 0.84541
			CHANNELS 3 Zrotation Yrotation Xrotation
			JOINT LeftLeg
			{
				OFFSET 2.34760 -6.44999 0.00000
				CHANNELS 3 Zrotation Yrotation Xrotation
				JOINT LeftFoot
				{
					OFFSET 2.50650 -6.88655 0.00000
					CHANNELS 3 Zrotation Yrotation Xrotation
					JOINT LeftToeBase
					{
						OFFSET 0.12464 -0.34243 1.95563
						CHANNELS 3 Zrotation Yrotation Xrotation
						End Site
						{
							OFFSET 0.00000 -0.00000 1.00479
						}
					}
				}
			}
		}
	}
	JOINT RHipJoint
	{
		OFFSET 0 0 0
		CHANNELS 3 Zrotation Yrotation Xrotation
		JOINT RightUpLeg
		{
			OFFSET -1.40958 -1.72600 0.84541
			CHANNELS 3 Zrotation Yrotation Xrotation
			JOINT RightLeg
			{
				OFFSET -2.37905 -6.53640 0.00000
				CHANNELS 3 Zrotation Yrotation Xrotation
				JOINT RightFoot
				{
					OFFSET -2.50470 -6.88163 0.00000
					CHANNELS 3 Zrotation Yrotation Xrotation
					JOINT RightToeBase
					{
						OFFSET -0.12236 -0.33619 1.81785
						CHANNELS 3 Zrotation Yrotation Xrotation
						End Site
						{
							OFFSET -0.00000 -0.00000 0.93746
						}
					}
				}
			}
		}
	}
	JOINT LowerBack
	{
		OFFSET 0 0 0
		CHANNELS 3 Zrotation Yrotation Xrotation
		JOINT Spine
		{
			OFFSET -0.02146 1.96915 0.26424
			CHANNELS 3 Zrotation Yrotation Xrotation
			JOINT Spine1
			{
				OFFSET 0.01522 1.99484 0.02086
				CHANNELS 3 Zrotation Yrotation Xrotation
				JOINT Neck
				{
					OFFSET 0 0 0
					CHANNELS 3 Zrotation Yrotation Xrotation
					JOINT Neck1
					{
						OFFSET -0.02954 1.71757 0.03505
						CHANNELS 3 Zrotation Yrotation Xrotation
						JOINT Head
						{
							OFFSET 0.04170 1.65781 -0.11024
							CHANNELS 3 Zrotation Yrotation Xrotation
							End Site
							{
								OFFSET 0.01600 1.81465 -0.05144
							}
						}
					}
				}
				JOINT LeftShoulder
				{
					OFFSET 0 0 0
					CHANNELS 3 Zrotation Yrotation Xrotation
					JOINT LeftArm
					{
						OFFSET 2.77679 1.60868 -0.78649
						CHANNELS 3 Zrotation Yrotation Xrotation
						JOINT LeftForeArm
						{
							OFFSET 4.62672 -0.00000 -0.00000
							CHANNELS 3 Zrotation Yrotation Xrotation
							JOINT LeftHand
							{
								OFFSET 3.11018 -0.00000 -0.00000
								CHANNELS 3 Zrotation Yrotation Xrotation
								JOINT LeftFingerBase
								{
									OFFSET 0 0 0
									CHANNELS 3 Zrotation Yrotation Xrotation
									JOINT LeftHandIndex1
									{
										OFFSET 0.74383 -0.00000 -0.00000
										CHANNELS 3 Zrotation Yrotation Xrotation
										End Site
										{
											OFFSET 0.59970 -0.00000 -0.00000
										}
									}
								}
								JOINT LThumb
								{
									OFFSET 0 0 0
									CHANNELS 3 Zrotation Yrotation Xrotation
									End Site
									{
										OFFSET 0.60885 -0.00000 0.60885
									}
								}
							}
						}
					}
				}
				JOINT RightShoulder
				{
					OFFSET 0 0 0
					CHANNELS 3 Zrotation Yrotation Xrotation
					JOINT RightArm
					{
						OFFSET -2.73247 1.63658 -0.74740
						CHANNELS 3 Zrotation Yrotation Xrotation
						JOINT RightForeArm
						{
							OFFSET -4.55919 -0.00000 -0.00000
							CHANNELS 3 Zrotation Yrotation Xrotation
							JOINT RightHand
							{
								OFFSET -3.22748 -0.00000 -0.00000
								CHANNELS 3 Zrotation Yrotation Xrotation
								JOINT RightFingerBase
								{
									OFFSET 0 0 0
									CHANNELS 3 Zrotation Yrotation Xrotation
									JOINT RightHandIndex1
									{
										OFFSET -0.70088 -0.00000 -0.00000
										CHANNELS 3 Zrotation Yrotation Xrotation
										End Site
										{
											OFFSET -0.56507 -0.00000 -0.00000
										}
									}
								}
								JOINT RThumb
								{
									OFFSET 0 0 0
									CHANNELS 3 Zrotation Yrotation Xrotation
									End Site
									{
										OFFSET -0.57370 -0.00000 0.57370
									}
								}
							}
						}
					}
				}
			}
		}
	}
}
MOTION
Frames: 12
Frame Time: .0083333
-0.8087 16.5598 -44.1115 0 0 0 0 0 0 -21 0 0 0 0 0 0 0 0 0 0 0 0 0 0 21 0 0 0 0 0 0 0 0 0 0 0 0 0 0 0 0 0 0 0 0 0 0 -16 0 0 21 0 0 11 0 0 0 -8 0 0 0 0 0 0 0 0 0 0 0 0 0 0 0 0 0 0 0 0 8 0 0 0 0 0 0 0 0 0 0 0 0 0 0 0 0 0
-0.8087 16.5598 -44.1115 -0.5013 0.0291 19.2530 0.0000 0.0000 0.0000 -16.4390 -8.8906 -48.8664 11.0645 17.9665 62.9908 0.2246 0.7913 -9.2760 0.0497 -1.4392 -3.9580 0.0000 0.0000 0.0000 24.4602 2.3565 -29.2498 -3.1413 -10.9204 32.0120 -0.9177 18.0653 -19.9229 -0.0001 0.0551 -0.1514 1.1939 0.2094 -16.1990 1.9602 -0.0207 -4.5209 1.3865 -0.0033 4.2643 1.2725 -0.6646 -5.2973 -3.7273 -0.6674 8.5116 -1.4928 -0.4490 3.6942 -0.0000 0.0000 0.0000 -90.6949 11.2766 24.9336 10.6262 -17.7130 -1.6604 -0.0000 -0.0000 14.3398 13.9049 -17.5550 -4.2704 -7.1250 0.0000 -0.0000 -9.2603 12.1053 7.2095 -0.0000 0.0000 0.0000 86.4467 0.6451 20.9004 -20.1124 30.7775 -5.5887 0.0000 -0.0000 -7.8340 -16.9360 -33.3232 9.4968 7.1250 -0.0000 -0.0000 19.2900 -63.4706 -8.8079
-0.7979 16.5342 -43.9278 -1.1596 -0.9920 19.6025 0.0000 0.0000 0.0000 -15.9143 -8.3455 -50.0449 10.3946 17.6259 60.7993 0.2565 1.3407 -10.1523 0.1034 -2.0734 -5.7087 0.0000 0.0000 0.0000 24.9830 2.3364 -28.9859 -3.1813 -10.9829 32.2221 -0.8604 19.3305 -20.0801 -0.0000 -0.0406 0.1116 1.7225 0.7947 -16.7382 1.8987 0.6610 -4.9336 1.1593 0.3339 4.1095 1.5706 -0.8153 -3.0206 -3.8625 -0.8910 7.7247 -1.5591 -0.5306 2.9776 -0.0000 -0.0000 0.0000 -90.5453 12.8797 25.4103 10.5221 -17.5521 -1.6289 -0.0000 -0.0000 13.8442 13.3533 -18.3605 -4.2761 -7.1250 0.0000 -0.0000 -9.6350 11.3475 7.6628 -0.0000 -0.0000 0.0000 86.3785 0.2034 21.2294 -21.3271 32.2081 -6.2233 0.0000 -0.0000 -6.6444 -15.2688 -35.8057 9.0738 7.1250 -0.0000 -0.0000 23.6804 -65.2869 -11.9149
-0.7859 16.5030 -43.7520 -1.1545 -1.2207 19.8632 0.0000 0.0000 0.0000 -15.8122 -8.9379 -50.7897 9.6094 17.1843 58.1747 0.2553 2.2815 -10.6632 0.1509 -2.5030 -6.8980 0.0000 0.0000 0.0000 24.9859 1.7437 -28.7776 -3.1801 -10.9811 32.2160 -0.8350 19.9925 -20.2143 -0.0006 -0.1545 0.4246 1.9235 0.8592 -16.4039 1.7224 0.7368 -5.1080 0.8668 0.3693 3.7510 1.5077 -0.7467 -3.6272 -3.6735 -0.8041 8.0878 -1.4955 -0.4902 3.2192 0.0000 0.0000 0.0000 -90.5292 13.6055 24.9977 10.4612 -17.4578 -1.6106 -0.0000 -0.0000 13.6846 12.4431 -18.8433 -4.0764 -7.1250 0.0000 -0.0000 -10.2345 10.9520 8.2396 0.0000 0.0000 0.0000 86.3374 0.7038 22.6622 -22.6013 33.6500 -6.9161 0.0000 -0.0000 -8.3772 -15.6215 -36.8308 9.5151 7.1250 -0.0000 -0.0000 24.4836 -66.2991 -12.9082
-0.7705 16.4875 -43.5589 -1.1828 -1.4641 19.7735 0.0000 0.0000 0.0000 -15.7176 -9.2205 -50.9357 8.8109 16.6845 55.4337 0.2718 2.6591 -11.1946 0.0357 -1.2191 -3.3519 0.0000 0.0000 0.0000 25.0716 0.6165 -28.1946 -3.1416 -10.9209 32.0135 -0.7327 21.2261 -20.1449 -0.0108 -0.6696 1.8400 1.9590 0.8706 -16.9517 1.7439 0.7006 -4.1130 0.8834 0.3585 5.0997 1.3738 -0.5937 -6.0874 -3.6222 -0.6010 8.2544 -1.4782 -0.4133 3.7610 0.0000 0.0000 0.0000 -90.8774 12.5489 24.4797 10.3553 -17.2935 -1.5789 -0.0000 -0.0000 13.6343 11.2493 -18.4155 -3.5954 -7.1250 0.0000 -0.0000 -11.0060 11.4895 8.7605 0.0000 0.0000 0.0000 85.9050 3.0969 23.4999 -22.8337 33.9065 -7.0453 0.0000 -0.0000 -9.4147 -16.4190 -35.1088 9.6190 7.1250 -0.0000 -0.0000 21.6287 -64.9786 -10.6823
-0.7542 16.4784 -43.3442 -0.6236 -0.6276 19.2350 0.0000 0.0000 0.0000 -16.1225 -10.2571 -50.1314 7.9435 16.0775 52.3588 0.2928 2.6400 -11.5410 0.0000 -0.0278 -0.0764 0.0000 0.0000 0.0000 24.8014 -1.2054 -27.0683 -3.0699 -10.8074 31.6330 -0.8130 21.4975 -20.7972 -0.0076 -0.5633 1.5478 1.4672 0.5160 -16.7152 1.7159 0.3376 -4.5399 1.0495 0.1745 4.5174 1.2507 -0.7482 -3.6167 -3.6776 -0.8010 7.6095 -1.4440 -0.4934 3.0534 -0.0000 -0.0000 0.0000 -91.2674 15.0222 24.2449 10.6141 -17.6944 -1.6567 -0.0000 -0.0000 13.8175 10.1539 -18.1540 -3.1939 -7.1250 0.0000 -0.0000 -11.7185 11.8433 9.2647 -0.0000 -0.0000 0.0000 85.3713 1.8541 24.4705 -24.1470 35.3193 -7.7914 0.0000 -0.0000 -10.2577 -17.1199 -36.3846 10.3548 7.1250 -0.0000 -0.0000 22.2463 -66.3349 -11.6937
-0.7525 16.4827 -43.1451 -0.5861 -1.1042 19.2256 0.0000 0.0000 0.0000 -16.2599 -10.1198 -50.4127 7.0724 15.3925 49.1476 0.2671 3.2097 -11.4849 0.0455 -1.3769 -3.7866 0.0000 0.0000 0.0000 24.7057 -1.8360 -26.0953 -2.9512 -10.6157 30.9944 -0.7099 22.3855 -20.6010 -0.0303 -1.1239 3.0897 1.1967 0.5873 -16.4763 1.6984 0.4850 -4.6366 1.2098 0.2454 4.2841 1.2471 -0.7743 -3.7992 -3.7131 -0.8270 7.8564 -1.4618 -0.5110 3.1720 0.0000 0.0000 0.0000 -91.5225 15.8257 24.0194 10.6104 -17.6886 -1.6556 -0.0000 -0.0000 13.9176 9.8071 -18.0827 -3.0712 -7.1250 0.0000 -0.0000 -11.9445 11.9423 9.4266 0.0000 0.0000 0.0000 84.9934 2.1314 25.1942 -25.2451 36.4534 -8.4351 0.0000 -0.0000 -10.6064 -16.6573 -33.3450 9.3395 7.1250 -0.0000 -0.0000 19.6212 -63.4174 -8.9406
-0.7514 16.4849 -42.9501 -0.6223 -1.4835 19.2180 0.0000 0.0000 0.0000 -16.2509 -10.0205 -50.6439 6.2046 14.6238 45.7976 0.2412 3.7479 -11.4329 0.1336 -2.3563 -6.4914 0.0000 0.0000 0.0000 24.7108 -2.4588 -25.0602 -2.8142 -10.3880 30.2425 -0.6398 23.0840 -20.5391 -0.0452 -1.3722 3.7734 1.0342 0.6558 -16.4803 1.6651 0.6017 -4.5650 1.2906 0.3021 4.3595 1.2390 -0.7535 -3.9616 -3.6433 -0.8041 7.8803 -1.4388 -0.4988 3.2117 0.0000 0.0000 0.0000 -91.6835 15.7674 23.7211 10.2790 -17.1748 -1.5563 -0.0000 -0.0000 14.1496 9.2064 -17.1275 -2.7328 -7.1250 0.0000 -0.0000 -12.3487 12.9319 9.5002 0.0000 0.0000 0.0000 84.7139 2.6637 25.9091 -26.3141 37.5172 -9.0783 0.0000 -0.0000 -11.4188 -16.9831 -34.0770 9.7105 7.1250 -0.0000 -0.0000 19.9475 -64.1846 -9.4524
-0.7421 16.4790 -42.7560 -0.5806 -1.6521 19.1163 0.0000 0.0000 0.0000 -16.2195 -10.1845 -50.4603 5.3755 13.7946 42.4206 0.2338 3.8239 -11.3613 0.1300 -2.3238 -6.4013 0.0000 0.0000 0.0000 24.6722 -3.4384 -23.9666 -2.6639 -10.1300 29.3988 -0.5910 23.6337 -20.5441 -0.0388 -1.2711 3.4950 0.8323 0.6702 -16.6214 1.6732 0.6472 -4.3941 1.4269 0.3229 4.6133 1.0973 -0.7586 -3.8892 -3.5946 -0.8101 7.6732 -1.3939 -0.5022 3.1266 -0.0000 -0.0000 0.0000 -92.0264 15.9485 23.1208 10.0944 -16.8871 -1.5023 -0.0000 -0.0000 14.8911 9.5579 -16.5260 -2.7422 -7.1250 0.0000 -0.0000 -12.1280 13.4997 9.1739 -0.0000 -0.0000 0.0000 84.2104 3.0165 26.7997 -27.6118 38.7564 -9.8797 0.0000 -0.0000 -12.5931 -17.0270 -34.8341 9.9223 7.1250 -0.0000 -0.0000 20.6544 -64.8956 -10.1418
-0.7280 16.4724 -42.5584 -0.5941 -1.8262 19.0362 0.0000 0.0000 0.0000 -16.0815 -10.3815 -50.2308 4.5891 12.9056 39.0162 0.2210 3.8990 -11.1921 0.0803 -1.8275 -5.0292 0.0000 0.0000 0.0000 24.5926 -4.1543 -22.8063 -2.5228 -9.8793 28.5868 -0.5248 24.1809 -20.4525 -0.0584 -1.5592 4.2891 0.7708 0.6993 -15.4704 1.6841 0.7297 -5.0578 1.4623 0.3671 3.2937 0.9219 -0.6923 -3.5972 -3.4517 -0.7105 8.0440 -1.3139 -0.4530 3.2004 0.0000 0.0000 0.0000 -92.3150 17.6660 22.6721 10.1814 -17.0228 -1.5276 -0.0000 -0.0000 15.4118 9.1110 -16.2021 -2.5621 -7.1250 0.0000 -0.0000 -12.4300 13.8510 9.3192 0.0000 0.0000 0.0000 83.7929 2.1575 27.6281 -29.1208 40.1278 -10.8385 0.0000 -0.0000 -13.4053 -16.8698 -36.4199 10.2060 7.1250 -0.0000 -0.0000 22.5743 -66.2943 -11.8528
-0.7157 16.4609 -42.3621 -0.7414 -2.2353 19.0043 0.0000 0.0000 0.0000 -15.7520 -10.4645 -50.0324 3.8610 11.9732 35.6371 0.2054 4.1655 -11.1273 0.0612 -1.5964 -4.3914 0.0000 0.0000 0.0000 24.5633 -4.5702 -21.6505 -2.3859 -9.6274 27.7784 -0.4257 24.7702 -20.1988 -0.0822 -1.8489 5.0882 1.0929 0.7294 -15.9197 1.6342 0.7050 -4.7265 1.2340 0.3529 3.8885 0.6104 -0.5117 -3.5090 -3.2160 -0.4777 7.6013 -1.1665 -0.3341 3.0368 -0.0000 -0.0000 0.0000 -92.5018 17.8942 22.2907 10.2163 -17.0772 -1.5379 -0.0000 -0.0000 15.7145 8.3982 -15.7752 -2.2984 -7.1250 0.0000 -0.0000 -12.9135 14.3191 9.5692 -0.0000 -0.0000 0.0000 83.5270 3.0222 28.6473 -30.3610 41.2008 -11.6467 0.0000 -0.0000 -13.6714 -16.1760 -38.1606 10.1610 7.1250 -0.0000 -0.0000 25.5594 -67.6303 -14.2758
-0.7085 16.4426 -42.1672 -0.6565 -2.7922 19.0891 0.0000 0.0000 0.0000 -15.6451 -10.5307 -49.8080 3.1850 10.9886 32.2416 0.1799 4.4176 -10.8680 0.0870 -1.9022 -5.2355 0.0000 0.0000 0.0000 24.2574 -4.8100 -20.6135 -2.2536 -9.3754 26.9767 -0.4082 25.0146 -20.2427 -0.0552 -1.5167 4.1718 0.6417 0.8720 -15.8568 1.6470 0.9662 -4.8598 1.5492 0.4822 3.7029 0.6354 -0.5967 -3.2341 -3.4358 -0.5792 7.5353 -1.2430 -0.3887 2.9607 -0.0000 0.0000 0.0000 -92.8782 18.9546 21.4749 10.2903 -17.1924 -1.5597 -0.0000 -0.0000 16.7223 8.0071 -15.8917 -2.2058 -7.1250 0.0000 -0.0000 -13.1690 14.2298 9.7949 -0.0000 0.0000 0.0000 83.1406 3.1398 29.5203 -31.0176 41.7498 -12.0816 0.0000 -0.0000 -16.4047 -18.7566 -37.1659 11.5934 7.1250 -0.0000 -0.0000 21.2747 -67.5255 -11.7377
